# xmcd
#
# Track frame offsets: 
#        150
#        16573
#        36363
#        52924
#        77856
#        97746
#        111822
#        136718
#        153948
#        171425
#        188913
#        223884
#        241550
#        264188
#        293089
#
# Disc length: 4136 seconds
#
# Revision: 5
# Processed by: cddbd v1.5.2PL0 Copyright (c) Steve Scherf et al.
# Submitted via: ExactAudioCopy v0.99pb5
#
DISCID=b810260f
DTITLE=Various Artist - Peter's Pop Hits 82-83 - CD 2
DYEAR=1999
DGENRE=Pop
TTITLE0=Mike Oldfield - Moonlight shadow
TTITLE1=Culture Club - Do you really want to hurt me
TTITLE2=Kajagoogoo - Too shy
TTITLE3=Spandau Ballet - True
TTITLE4=Ultravox - Hymn
TTITLE5=Heaven 17 - Temptation
TTITLE6=A Flock Of Seagulls - Wishing (if I had a photograph of you)
TTITLE7=Greg Kihn Band - Jeopardy
TTITLE8=Endgames - Waiting for another chance
TTITLE9=Irene Cara - Flashdance ...what a feeling
TTITLE10=Gazebo - I like Chopin
TTITLE11=Kano - Another life
TTITLE12=Flirts - Passion
TTITLE13=Divine - Shoot your shot
TTITLE14=Freeez - I.O.U.
EXTD=YEAR: 1999
EXTT0=
EXTT1=
EXTT2=
EXTT3=
EXTT4=
EXTT5=
EXTT6=
EXTT7=
EXTT8=
EXTT9=
EXTT10=
EXTT11=
EXTT12=
EXTT13=
EXTT14=
PLAYORDER=
